<?xml version="1.0" encoding="UTF-8"?>
<svg id="Layer_1" data-name="Layer 1" xmlns="http://www.w3.org/2000/svg" viewBox="0 0 1246.2 1246.2">
  <defs>
    <style>
      .cls-1 {
        fill: #fff;
        stroke-width: 0px;
      }
    </style>
  </defs>
  <path class="cls-1" d="m473.67,392.22l.02,220.8c0,1.41-1.14,2.56-2.56,2.55l-185.82-.09c-1.41,0-2.56,1.14-2.56,2.55v18.35c0,1.41,1.14,2.55,2.55,2.55l227.34-.03c1.41,0,2.55-1.14,2.55-2.55v-83.17c0-1.41,1.14-2.55,2.55-2.55h211.65c1.41,0,2.55,1.14,2.55,2.55v83.2c0,1.41,1.14,2.56,2.56,2.55l227.29-.09c1.41,0,2.55-1.14,2.55-2.55v-17.99c0-1.41-1.14-2.55-2.55-2.55l-184.39-.27c-1.41,0-2.55-1.14-2.55-2.55l-.02-220.69c0-1.41,1.14-2.55,2.55-2.55h59.86c1.41,0,2.56,1.14,2.55,2.56l-.09,155.83c0,1.41,1.14,2.56,2.55,2.56h184.4c1.41,0,2.55,1.14,2.55,2.55l.05,148.08c0,1.41-1.14,2.56-2.55,2.56h-357.06c-1.41-.01-2.55-1.16-2.55-2.57v-83.17c0-1.41-1.15-2.55-2.56-2.55h-81.87c-1.41,0-2.55,1.15-2.55,2.56v83.17c0,1.41-1.14,2.55-2.55,2.55H221.79c-1.41,0-2.55-1.14-2.55-2.55v-148.08c0-1.41,1.15-2.55,2.56-2.55h184.42c1.41,0,2.55-1.14,2.55-2.55v-155.85c0-1.41,1.14-2.55,2.55-2.55h59.79c1.41,0,2.55,1.14,2.55,2.55Z"/>
  <g>
    <polygon class="cls-1" points="623.96 808.12 629.91 828.28 650.93 827.71 633.59 839.6 640.63 859.41 623.96 846.6 607.29 859.41 614.33 839.6 596.99 827.71 618.01 828.28 623.96 808.12"/>
    <polygon class="cls-1" points="527.96 808.12 533.91 828.28 554.93 827.71 537.59 839.6 544.63 859.41 527.96 846.6 511.29 859.41 518.33 839.6 500.99 827.71 522.01 828.28 527.96 808.12"/>
    <polygon class="cls-1" points="421.98 808.12 427.94 828.28 448.95 827.71 431.61 839.6 438.65 859.41 421.98 846.6 405.32 859.41 412.35 839.6 395.02 827.71 416.03 828.28 421.98 808.12"/>
    <polygon class="cls-1" points="730.08 808.12 736.03 828.28 757.05 827.71 739.71 839.6 746.75 859.41 730.08 846.6 713.41 859.41 720.45 839.6 703.11 827.71 724.13 828.28 730.08 808.12"/>
    <polygon class="cls-1" points="825.89 808.12 831.84 828.28 852.86 827.71 835.52 839.6 842.56 859.41 825.89 846.6 809.23 859.41 816.26 839.6 798.92 827.71 819.94 828.28 825.89 808.12"/>
  </g>
</svg>